<svg width="300" height="126" viewBox="0 0 300 126" fill="none" xmlns="http://www.w3.org/2000/svg">
<g clip-path="url(#clip0_1_13)">
<path d="M226.062 54.028V30.6353C226.062 28.3028 227.959 26.4054 230.292 26.4054H245.595C247.928 26.4054 249.825 28.3028 249.825 30.6353V54.028C249.825 56.3605 247.928 58.2579 245.595 58.2579H230.292C227.959 58.2579 226.062 56.3605 226.062 54.028Z" fill="#6C63FF"/>
<path d="M233.899 36.5173H241.988V34.4949H233.899V36.5173Z" fill="#3F3D56"/>
<path d="M235.921 32.9781H239.966V26.4054H235.921V32.9781Z" fill="#3F3D56"/>
<path d="M235.921 58.2579H239.966V51.6852H235.921V58.2579Z" fill="#3F3D56"/>
<path d="M215.192 54.9734H191.799C189.466 54.9734 187.569 53.076 187.569 50.7435V35.4403C187.569 33.1079 189.466 31.2104 191.799 31.2104H215.192C217.524 31.2104 219.422 33.1079 219.422 35.4403V50.7435C219.422 53.076 217.524 54.9734 215.192 54.9734Z" fill="#6C63FF"/>
<path d="M208.046 34.4968H199.956V36.5192H208.046V34.4968Z" fill="#3F3D56"/>
<path d="M194.142 45.1143V41.0695H187.569V45.1143H194.142Z" fill="#3F3D56"/>
<path d="M219.421 45.1143V41.0695H212.849V45.1143H219.421Z" fill="#3F3D56"/>
<path d="M25.4345 98.7169L21.5293 75.9367C19.7941 65.8142 27.2861 56.4472 37.5424 55.916L93.2145 53.0326L106.501 31.1341C108.263 28.2309 111.412 26.4581 114.808 26.4581H154.81C157.954 26.4581 160.611 28.7898 161.019 31.9076L162.035 49.4298L261.764 49.7284L274.309 91.0734L262.664 90.5057L263.262 103.046L248.033 103.644L242.957 89.2898C242.001 86.587 237.813 83.5394 233.459 80.9897C223.699 75.2736 211.16 77.1082 203.774 85.6744C202.031 87.6951 200.813 89.8006 200.473 91.7749L198.169 105.137L86.4962 103.345L71.8604 82.8719C67.5364 78.1663 47.1242 76.4379 45.2859 82.8719L34.2429 99.1648L25.4345 98.7169H25.4345Z" fill="#E6E6E6"/>
<path d="M146.81 39.783L150.096 55.272L108.293 56.1678L117.122 37.2117C117.923 35.4921 119.681 34.4244 121.576 34.5068L141.608 35.3778C144.144 35.488 146.284 37.3001 146.81 39.783V39.783Z" fill="white"/>
<path d="M102.62 54.9734L110.981 33.4749L108.792 31.2861L95.1553 51.9875L97.9261 56.1678L102.62 54.9734Z" fill="white"/>
<path d="M222.355 124.844C233.239 124.844 242.062 116.02 242.062 105.137C242.062 94.2527 233.239 85.4296 222.355 85.4296C211.471 85.4296 202.648 94.2527 202.648 105.137C202.648 116.02 211.471 124.844 222.355 124.844Z" fill="#3F3D56"/>
<path d="M208.769 105.137C208.769 97.6453 214.863 91.5507 222.355 91.5507C229.846 91.5507 235.941 97.6453 235.941 105.137C235.941 112.628 229.846 118.722 222.355 118.722C214.863 118.722 208.769 112.628 208.769 105.137ZM209.067 105.137C209.067 112.463 215.028 118.424 222.355 118.424C229.681 118.424 235.642 112.463 235.642 105.137C235.642 97.81 229.681 91.8493 222.355 91.8493C215.028 91.8493 209.067 97.81 209.067 105.137Z" fill="white"/>
<path d="M210.71 105.137C210.71 111.568 215.923 116.782 222.355 116.782C228.786 116.782 234 111.568 234 105.137C234 98.7052 228.786 93.4916 222.355 93.4916C215.923 93.4916 210.71 98.7052 210.71 105.137ZM229.924 102.348L227.861 103.693L227.068 102.476L229.924 102.348ZM226.783 109.187L227.333 107.843L229.063 110.119L226.783 109.187ZM221.5 113.796L222.952 111.333V113.796H221.5ZM221.5 99.5374L222.952 97.0746V99.5374H221.5ZM215.049 110.119L216.779 107.843L217.329 109.187L215.049 110.119ZM214.188 102.348L217.044 102.476L216.251 103.693L214.188 102.348Z" fill="#E6E6E6"/>
<path d="M56.9358 124.844C67.8196 124.844 76.6427 116.02 76.6427 105.137C76.6427 94.2527 67.8196 85.4296 56.9358 85.4296C46.0519 85.4296 37.2288 94.2527 37.2288 105.137C37.2288 116.02 46.0519 124.844 56.9358 124.844Z" fill="#3F3D56"/>
<path d="M43.3499 105.137C43.3499 97.6453 49.4445 91.5507 56.9358 91.5507C64.4271 91.5507 70.5216 97.6453 70.5216 105.137C70.5216 112.628 64.4271 118.722 56.9358 118.722C49.4445 118.722 43.3499 112.628 43.3499 105.137ZM43.6485 105.137C43.6485 112.463 49.6091 118.424 56.9358 118.424C64.2625 118.424 70.223 112.463 70.223 105.137C70.223 97.81 64.2625 91.8493 56.9358 91.8493C49.6091 91.8493 43.6485 97.81 43.6485 105.137Z" fill="white"/>
<path d="M45.2908 105.137C45.2908 111.568 50.5044 116.782 56.9358 116.782C63.3672 116.782 68.5808 111.568 68.5808 105.137C68.5808 98.7052 63.3672 93.4916 56.9358 93.4916C50.5044 93.4916 45.2908 98.7052 45.2908 105.137ZM64.5054 102.348L62.4422 103.693L61.6495 102.476L64.5054 102.348ZM61.3643 109.187L61.9138 107.843L63.6439 110.119L61.3643 109.187ZM56.0812 113.796L57.533 111.333V113.796H56.0812ZM56.0812 99.5374L57.533 97.0746V99.5374H56.0812ZM49.6305 110.119L51.3606 107.843L51.91 109.187L49.6305 110.119ZM48.769 102.348L51.6249 102.476L50.8322 103.693L48.769 102.348Z" fill="#E6E6E6"/>
<path d="M139.197 63.1847H150.544V60.7959H139.197V63.1847Z" fill="#3F3D56"/>
<path d="M299.124 110.077C299.018 109.753 298.217 109.895 298.14 109.606C298.063 109.318 298.832 109.076 299.422 108.263C299.528 108.116 300.199 107.193 299.942 106.804C299.454 106.068 296.064 107.902 295.25 106.873C295.071 106.647 294.998 106.259 294.465 105.537C294.254 105.25 294.118 105.112 293.956 105.116C293.725 105.122 293.643 105.41 293.281 105.931C292.738 106.714 292.543 106.616 292.185 107.257C291.92 107.733 291.888 108.037 291.697 108.055C291.426 108.08 291.314 107.488 290.983 107.465C290.645 107.441 290.307 108.027 290.14 108.484C289.826 109.343 290.02 109.999 290.063 110.653C290.11 111.363 290 112.404 289.228 113.739L281.945 125.343C283.509 122.977 287.949 116.527 289.738 114.16C290.254 113.477 290.809 112.792 291.663 112.662C292.486 112.538 293.486 112.945 294.883 112.921C295.046 112.919 295.5 112.905 295.61 112.665C295.702 112.466 295.475 112.293 295.557 112.106C295.668 111.855 296.165 111.963 296.844 111.796C297.322 111.679 297.647 111.485 297.926 111.318C298.01 111.267 299.265 110.507 299.124 110.077H299.124Z" fill="#F2F2F2"/>
<path d="M280.048 112.786C279.859 112.744 279.697 113.179 279.533 113.133C279.37 113.087 279.473 112.64 279.244 112.116C279.203 112.022 278.943 111.426 278.678 111.44C278.176 111.467 278.098 113.66 277.358 113.763C277.195 113.785 276.984 113.71 276.476 113.762C276.274 113.784 276.167 113.81 276.122 113.891C276.059 114.006 276.176 114.129 276.328 114.457C276.555 114.95 276.451 115.017 276.662 115.378C276.819 115.645 276.959 115.749 276.913 115.848C276.847 115.988 276.524 115.872 276.417 116.028C276.308 116.187 276.498 116.521 276.674 116.736C277.005 117.138 277.383 117.231 277.717 117.399C278.079 117.581 278.558 117.935 278.99 118.699L282.584 125.622C281.874 124.172 279.99 120.132 279.344 118.571C279.158 118.12 278.982 117.65 279.165 117.194C279.341 116.754 279.829 116.38 280.221 115.688C280.266 115.607 280.391 115.381 280.305 115.257C280.233 115.155 280.083 115.216 280.015 115.122C279.924 114.995 280.12 114.782 280.234 114.401C280.314 114.133 280.313 113.917 280.312 113.732C280.311 113.676 280.3 112.841 280.048 112.786V112.786V112.786Z" fill="#F2F2F2"/>
<path d="M283.634 114.475L283.747 113.432L283.816 113.366C284.136 113.063 284.337 112.742 284.412 112.412C284.424 112.36 284.433 112.307 284.443 112.252C284.48 112.038 284.527 111.771 284.733 111.495C284.848 111.34 285.154 110.992 285.468 111.113C285.553 111.145 285.611 111.2 285.651 111.259C285.661 111.249 285.671 111.238 285.682 111.227C285.818 111.095 285.913 111.047 286.005 111C286.075 110.964 286.148 110.928 286.271 110.829C286.325 110.786 286.368 110.747 286.404 110.715C286.515 110.616 286.656 110.5 286.85 110.546C287.055 110.602 287.125 110.798 287.172 110.927C287.255 111.159 287.281 111.317 287.298 111.423C287.304 111.461 287.311 111.505 287.316 111.519C287.361 111.632 287.925 111.661 288.137 111.673C288.614 111.699 289.026 111.722 289.125 112.048C289.196 112.282 289.048 112.536 288.672 112.825C288.554 112.915 288.437 112.977 288.335 113.024C288.398 113.083 288.448 113.164 288.451 113.274C288.458 113.534 288.191 113.734 287.657 113.869C287.524 113.903 287.346 113.947 287.113 113.936C287.003 113.931 286.906 113.914 286.824 113.898C286.812 113.945 286.79 113.994 286.749 114.04C286.63 114.176 286.438 114.21 286.178 114.134C285.891 114.054 285.663 113.945 285.463 113.849C285.288 113.765 285.137 113.694 285.01 113.675C284.775 113.642 284.555 113.787 284.292 113.981L283.634 114.475L283.634 114.475Z" fill="#F2F2F2"/>
<path d="M285.514 108.534L284.476 108.69L284.395 108.639C284.021 108.406 283.659 108.294 283.321 108.305C283.267 108.306 283.213 108.311 283.159 108.315C282.942 108.333 282.672 108.356 282.352 108.227C282.173 108.154 281.759 107.948 281.797 107.612C281.806 107.522 281.845 107.453 281.891 107.399C281.879 107.392 281.866 107.385 281.853 107.377C281.691 107.279 281.62 107.199 281.551 107.122C281.499 107.063 281.445 107.002 281.318 106.908C281.263 106.867 281.214 106.835 281.173 106.808C281.05 106.726 280.902 106.619 280.898 106.42C280.9 106.208 281.071 106.09 281.185 106.012C281.387 105.873 281.534 105.807 281.632 105.764C281.668 105.749 281.708 105.731 281.72 105.722C281.818 105.65 281.704 105.097 281.662 104.889C281.566 104.421 281.483 104.017 281.773 103.838C281.981 103.71 282.265 103.789 282.64 104.08C282.757 104.17 282.847 104.268 282.917 104.355C282.959 104.279 283.024 104.21 283.13 104.179C283.38 104.107 283.641 104.314 283.907 104.796C283.973 104.916 284.062 105.077 284.11 105.306C284.133 105.414 284.141 105.511 284.146 105.594C284.195 105.594 284.247 105.604 284.302 105.631C284.464 105.712 284.546 105.888 284.538 106.16C284.534 106.458 284.486 106.705 284.444 106.924C284.408 107.114 284.377 107.278 284.39 107.406C284.418 107.642 284.615 107.817 284.868 108.023L285.514 108.534H285.514L285.514 108.534Z" fill="#F2F2F2"/>
<path d="M285.653 105.419L285.766 104.376L285.836 104.31C286.156 104.007 286.357 103.687 286.432 103.356C286.444 103.304 286.453 103.251 286.463 103.196C286.5 102.982 286.547 102.715 286.753 102.439C286.868 102.284 287.173 101.936 287.488 102.057C287.573 102.089 287.631 102.144 287.67 102.203C287.68 102.193 287.691 102.183 287.702 102.172C287.838 102.039 287.933 101.991 288.024 101.944C288.095 101.909 288.167 101.872 288.291 101.773C288.344 101.73 288.388 101.691 288.424 101.659C288.535 101.56 288.676 101.444 288.869 101.49C289.075 101.546 289.145 101.742 289.192 101.872C289.275 102.103 289.301 102.262 289.318 102.367C289.324 102.405 289.331 102.449 289.336 102.463C289.381 102.576 289.945 102.605 290.157 102.618C290.633 102.643 291.046 102.666 291.145 102.992C291.216 103.226 291.068 103.48 290.691 103.769C290.574 103.859 290.457 103.921 290.355 103.968C290.418 104.027 290.468 104.108 290.471 104.218C290.478 104.478 290.211 104.678 289.677 104.813C289.544 104.847 289.366 104.892 289.132 104.88C289.022 104.875 288.926 104.858 288.844 104.842C288.832 104.889 288.809 104.938 288.769 104.984C288.65 105.12 288.458 105.154 288.198 105.078C287.91 104.998 287.683 104.889 287.483 104.793C287.308 104.709 287.157 104.638 287.03 104.619C286.795 104.586 286.575 104.731 286.312 104.925L285.653 105.419L285.653 105.419Z" fill="#F2F2F2"/>
<path d="M282.289 125.402L282.106 125.221L282.109 124.963L282.106 125.221L281.851 125.194C281.852 125.17 281.85 125.114 281.849 125.026C281.839 124.546 281.808 123.086 282.012 120.843C282.154 119.277 282.391 117.687 282.717 116.117C283.043 114.544 283.382 113.374 283.654 112.434C283.86 111.725 284.067 111.052 284.269 110.397C284.809 108.646 285.319 106.992 285.635 105.106C285.706 104.685 285.852 103.808 285.552 102.774C285.378 102.174 285.079 101.609 284.664 101.095L285.066 100.771C285.523 101.339 285.853 101.964 286.047 102.63C286.38 103.777 286.22 104.733 286.144 105.191C285.822 107.111 285.307 108.781 284.762 110.548C284.56 111.201 284.354 111.871 284.149 112.577C283.88 113.509 283.544 114.669 283.222 116.221C282.899 117.772 282.665 119.343 282.525 120.889C282.324 123.104 282.354 124.543 282.364 125.015C282.369 125.268 282.37 125.321 282.289 125.402V125.402Z" fill="#F2F2F2"/>
<path d="M283.564 101.689C283.543 101.684 283.522 101.679 283.501 101.673C283.078 101.554 282.739 101.21 282.492 100.648C282.376 100.384 282.349 100.106 282.295 99.5519C282.286 99.4665 282.249 99.0341 282.295 98.4611C282.325 98.0867 282.365 97.9363 282.467 97.8182C282.58 97.6867 282.733 97.6114 282.894 97.5735C282.898 97.524 282.915 97.4755 282.947 97.4295C283.079 97.2389 283.301 97.3172 283.421 97.358C283.482 97.3798 283.558 97.4075 283.643 97.4218C283.776 97.4449 283.856 97.4214 283.977 97.3864C284.092 97.3529 284.236 97.3112 284.434 97.3147C284.826 97.3201 285.116 97.4962 285.212 97.5541C285.716 97.8568 285.89 98.3397 286.091 98.8988C286.131 99.0108 286.264 99.4159 286.294 99.9375C286.317 100.314 286.267 100.468 286.211 100.578C286.095 100.804 285.919 100.909 285.48 101.13C285.021 101.362 284.791 101.478 284.602 101.537C284.163 101.675 283.888 101.761 283.564 101.689V101.689V101.689Z" fill="#F2F2F2"/>
<path d="M0 124.954C0 125.151 0.27628 125.309 0.620324 125.309H296.753C297.097 125.309 297.374 125.151 297.374 124.954C297.374 124.757 297.097 124.599 296.753 124.599H0.620324C0.27628 124.599 0 124.757 0 124.954Z" fill="#CCCCCC"/>
<path d="M150.472 122.711L154.617 122.71L156.59 106.719L150.471 106.719L150.472 122.711Z" fill="#FFB6B6"/>
<path d="M164.676 122.617C164.805 122.834 164.873 123.536 164.873 123.788C164.873 124.566 164.243 125.196 163.466 125.196L150.627 125.196C150.097 125.196 149.667 124.766 149.667 124.236V123.701C149.667 123.701 149.032 122.095 150.339 120.114C150.339 120.114 151.964 121.665 154.393 119.236L155.109 117.939L160.293 121.73L163.166 122.084C163.795 122.161 164.352 122.072 164.676 122.617H164.676L164.676 122.617Z" fill="#2F2E41"/>
<path d="M131.845 122.711L135.991 122.71L137.963 106.719L131.844 106.719L131.845 122.711Z" fill="#FFB6B6"/>
<path d="M146.049 122.617C146.178 122.834 146.246 123.536 146.246 123.788C146.246 124.566 145.616 125.196 144.839 125.196L132 125.196C131.47 125.196 131.04 124.766 131.04 124.236V123.701C131.04 123.701 130.405 122.095 131.712 120.114C131.712 120.114 133.338 121.665 135.766 119.236L136.482 117.939L141.666 121.73L144.54 122.084C145.168 122.161 145.725 122.072 146.049 122.617H146.049L146.049 122.617Z" fill="#2F2E41"/>
<path d="M149.815 13.5188L150.602 20.8646L141.42 20.0776L142.994 13.2565L149.815 13.5188Z" fill="#FFB6B6"/>
<path opacity="0.1" d="M149.815 13.5188L150.602 20.8646L141.42 20.0776L142.994 13.2565L149.815 13.5188Z" fill="black"/>
<path d="M146.536 14.4371C149.868 14.4371 152.57 11.7355 152.57 8.40301C152.57 5.0705 149.868 2.36897 146.536 2.36897C143.203 2.36897 140.502 5.0705 140.502 8.40301C140.502 11.7355 143.203 14.4371 146.536 14.4371Z" fill="#FFB6B6"/>
<path d="M150.471 17.8476L160.571 23.7505L157.262 39.7538L159.522 61.2665L157.948 113.999L148.241 112.949L146.929 68.0875L139.321 114.523H129.895L131.451 64.4146L136.173 43.1643L133.287 20.0776L142.076 17.3229L150.471 17.8476Z" fill="#2F2E41"/>
<path d="M150.864 10.1083C150.864 10.1083 151.389 8.27183 152.57 8.40301C153.75 8.53419 154.013 7.48479 153.75 6.96009C153.488 6.43539 152.963 3.81189 152.963 3.81189C152.963 3.81189 153.226 1.97544 151.651 1.7131C150.077 1.45075 149.553 1.1884 149.29 0.663698C149.028 0.138998 145.093 -0.3857 143.781 0.401348C142.469 1.1884 141.42 2.69846 140.502 3.124C139.583 3.54954 138.796 4.33659 139.321 5.64834C139.846 6.96009 140.607 9.52559 140.607 9.52559C140.607 9.52559 141.945 9.05888 142.207 9.84593C142.469 10.633 141.42 9.58358 142.732 7.48479C144.043 5.38599 144.043 3.28719 146.142 4.07424C148.241 4.86129 150.602 4.59894 150.34 6.17304C150.077 7.74714 150.864 10.1083 150.864 10.1083L150.864 10.1083Z" fill="#2F2E41"/>
<path d="M155.363 56.5602C154.1 57.8973 153.766 59.6327 154.617 60.4362C155.468 61.2397 157.182 60.807 158.445 59.4693C158.957 58.9419 159.335 58.2995 159.547 57.596L164.826 51.8632L162.083 49.4433L157.17 55.3517C156.48 55.6044 155.86 56.0188 155.363 56.5602Z" fill="#FFB6B6"/>
<path d="M160.465 23.6193L169.355 38.7647L170.672 45.679L162.111 56.5442L158.49 51.9347L162.77 45.679L155.856 33.4968L160.465 23.6193Z" fill="#2F2E41"/>
<path d="M135.471 55.15V37.2927C135.471 34.571 137.685 32.3568 140.407 32.3568H167.704C170.425 32.3568 172.639 34.571 172.639 37.2927V55.15C172.639 57.8717 170.425 60.0859 167.704 60.0859H140.407C137.685 60.0859 135.471 57.8717 135.471 55.15Z" fill="#6C63FF"/>
<path d="M148.745 43.6276H158.185V41.2677H148.745V43.6276Z" fill="#3F3D56"/>
<path d="M157.411 59.9277V55.2078H149.742V59.9277H157.411Z" fill="#3F3D56"/>
<path d="M157.771 37.2348V32.515H150.102V37.2348H157.771Z" fill="#3F3D56"/>
<path d="M138.233 53.1497C139.496 54.4868 139.83 56.2221 138.979 57.0256C138.128 57.8291 136.414 57.3965 135.151 56.0588C134.639 55.5313 134.261 54.889 134.049 54.1854L128.77 48.4526L131.513 46.0327L136.426 51.9412C137.116 52.1939 137.736 52.6083 138.233 53.1497Z" fill="#FFB6B6"/>
<path d="M133.131 20.2087L124.241 35.3542L122.924 42.2684L131.485 53.1336L135.106 48.5241L130.826 42.2684L137.74 30.0862L133.131 20.2087Z" fill="#2F2E41"/>
<path d="M22.593 92.4267C27.0455 92.4267 30.655 89.2852 30.655 85.4099C30.655 81.5346 27.0455 78.393 22.593 78.393C18.1405 78.393 14.5311 81.5346 14.5311 85.4099C14.5311 89.2852 18.1405 92.4267 22.593 92.4267Z" fill="#E6E6E6"/>
</g>
<defs>
<clipPath id="clip0_1_13">
<rect width="300" height="125.622" fill="white"/>
</clipPath>
</defs>
</svg>
