<svg width="9" height="9" viewBox="0 0 9 9" fill="none" xmlns="http://www.w3.org/2000/svg">
<path d="M8.96978 7.83736L7.68605 2.70216C7.61925 2.43515 7.39706 2.25004 7.14341 2.25004H6.08432C6.14708 2.07338 6.18768 1.88582 6.18768 1.68753C6.18768 0.755523 5.43217 0 4.50018 0C3.56818 0 2.81267 0.755523 2.81267 1.68753C2.81267 1.88582 2.8531 2.07338 2.91603 2.25004H1.85694C1.60329 2.25004 1.38093 2.43532 1.31431 2.70216L0.0302198 7.83736C-0.116206 8.4229 0.287916 9 0.844265 9H8.15591C8.71208 9 9.11621 8.4229 8.96978 7.83736ZM4.5 2.24987C4.18992 2.24987 3.9375 1.99744 3.9375 1.68736C3.9375 1.37727 4.18992 1.12485 4.5 1.12485C4.81008 1.12485 5.0625 1.37727 5.0625 1.68736C5.0625 1.99744 4.81008 2.24987 4.5 2.24987Z" fill="black"/>
</svg>
