<svg width="204" height="147" viewBox="0 0 204 147" fill="none" xmlns="http://www.w3.org/2000/svg">
<g clip-path="url(#clip0_5_53)">
<path d="M100.585 146.291H92.748V86.0369H99.1212C99.4299 86.0369 99.726 86.159 99.9449 86.3765C100.164 86.594 100.287 86.8893 100.289 87.1977L100.585 146.291Z" fill="#CCCCCC"/>
<path d="M93.4804 146.61H9.32611V103.699H93.4804V146.61Z" fill="white"/>
<path d="M60.311 146.451H9.48584V103.858H93.3207V113.473C93.3108 122.216 89.8298 130.598 83.6415 136.781C77.4531 142.963 69.0627 146.441 60.311 146.451Z" fill="#F2F2F2"/>
<path d="M99.3081 87.7485C99.2658 87.8284 99.233 87.913 99.2103 88.0005L96.3084 99.1749L93.1609 105.13H9.64551V103.647L14.4003 99.1749L19.947 88.5756C20.1919 88.1077 20.5134 87.684 20.8983 87.3222C21.7766 86.4966 22.937 86.0369 24.143 86.0369H98.2756C98.4769 86.0369 98.6747 86.0889 98.85 86.1878C99.0252 86.2867 99.1719 86.4291 99.2758 86.6013C99.3797 86.7736 99.4372 86.9697 99.4429 87.1707C99.4485 87.3716 99.4021 87.5707 99.3081 87.7485Z" fill="#F2F2F2"/>
<path d="M93.4804 146.61H9.32611V103.699H93.4804V146.61ZM9.96494 145.972H92.8416V104.337H9.96494V145.972Z" fill="#E6E6E6"/>
<path d="M97.8589 93.4649L96.3084 99.1749H14.4005L17.0472 94.4222L97.8589 93.4649Z" fill="#CCCCCC"/>
<path d="M25.8445 126.185H12.4294V126.927H25.8445V126.185Z" fill="white"/>
<path d="M25.8445 128.781H12.4294V129.522H25.8445V128.781Z" fill="white"/>
<path d="M25.8445 131.376H12.4294V132.118H25.8445V131.376Z" fill="white"/>
<path d="M17.6259 117.924C20.2909 117.924 22.4513 115.765 22.4513 113.103C22.4513 110.441 20.2909 108.282 17.6259 108.282C14.961 108.282 12.8006 110.441 12.8006 113.103C12.8006 115.765 14.961 117.924 17.6259 117.924Z" fill="white"/>
<path d="M70.5125 95.9365H66.4144V64.4263H69.7472C69.9087 64.4263 70.0635 64.4902 70.178 64.6039C70.2924 64.7177 70.3571 64.8721 70.3579 65.0333L70.5125 95.9365Z" fill="#CCCCCC"/>
<path d="M66.7974 96.1033H22.7886V73.6627H66.7974V96.1033Z" fill="white"/>
<path d="M49.4513 96.0199H22.8721V73.7461H66.7139V78.7741C66.7087 83.3464 64.8883 87.7299 61.6521 90.963C58.4158 94.1961 54.0281 96.0147 49.4513 96.0199Z" fill="#F2F2F2"/>
<path d="M69.845 65.3214C69.8229 65.3632 69.8057 65.4074 69.7938 65.4532L68.2763 71.2969L66.6303 74.4113H22.9556V73.6356L25.4422 71.2969L28.3428 65.7539C28.4709 65.5092 28.639 65.2877 28.8403 65.0985C29.2996 64.6667 29.9065 64.4263 30.5371 64.4263H69.3051C69.4103 64.4263 69.5138 64.4535 69.6054 64.5052C69.697 64.5569 69.7738 64.6314 69.8281 64.7215C69.8824 64.8116 69.9125 64.9141 69.9155 65.0192C69.9184 65.1243 69.8942 65.2284 69.845 65.3214Z" fill="#F2F2F2"/>
<path d="M66.7974 96.1033H22.7886V73.6627H66.7974V96.1033ZM23.1227 95.7696H66.4633V73.9964H23.1227V95.7696Z" fill="#E6E6E6"/>
<path d="M69.087 68.3109L68.2763 71.2967H25.4423L26.8263 68.8112L69.087 68.3109Z" fill="#CCCCCC"/>
<path d="M31.4269 85.4219H24.4115V85.8097H31.4269V85.4219Z" fill="white"/>
<path d="M31.4269 86.7793H24.4115V87.1672H31.4269V86.7793Z" fill="white"/>
<path d="M31.4269 88.1368H24.4115V88.5246H31.4269V88.1368Z" fill="white"/>
<path d="M27.129 81.1015C28.5227 81.1015 29.6524 79.9729 29.6524 78.5806C29.6524 77.1883 28.5227 76.0596 27.129 76.0596C25.7354 76.0596 24.6056 77.1883 24.6056 78.5806C24.6056 79.9729 25.7354 81.1015 27.129 81.1015Z" fill="white"/>
<path d="M191.29 146.588L191.264 146.452C190.85 144.168 190.938 141.821 191.523 139.574C192.108 137.328 193.175 135.235 194.652 133.442C195.488 132.443 196.446 131.553 197.505 130.794L197.606 130.721L197.65 130.837C198.176 132.224 198.841 133.613 199.144 134.228L199.348 129.638L199.465 129.576C199.999 129.29 200.607 129.171 201.21 129.233C201.813 129.295 202.384 129.536 202.848 129.925C203.329 130.311 203.683 130.832 203.864 131.42C204.046 132.009 204.047 132.639 203.868 133.228C203.709 133.767 203.559 134.326 203.414 134.867C202.915 136.726 202.4 138.648 201.401 140.267C200.633 141.484 199.602 142.515 198.384 143.284C197.166 144.053 195.791 144.54 194.361 144.71L191.29 146.588Z" fill="#F2F2F2"/>
<path d="M204 146.532C204 146.582 203.99 146.632 203.971 146.678C203.952 146.724 203.924 146.766 203.889 146.801C203.854 146.836 203.812 146.864 203.766 146.883C203.719 146.902 203.67 146.912 203.62 146.912H0.380103C0.279294 146.912 0.182612 146.872 0.111329 146.801C0.0400459 146.729 0 146.633 0 146.532C0 146.431 0.0400459 146.335 0.111329 146.264C0.182612 146.192 0.279294 146.152 0.380103 146.152H203.62C203.67 146.152 203.719 146.162 203.766 146.181C203.812 146.2 203.854 146.228 203.889 146.263C203.924 146.299 203.952 146.341 203.971 146.387C203.99 146.433 204 146.482 204 146.532Z" fill="#CCCCCC"/>
<path d="M157.901 49.3731L152.083 48.5406C150.116 51.8274 149.416 60.5756 149.416 60.5756L143.723 74.0943C143.346 74.3501 143.043 74.7007 142.845 75.1107C142.647 75.5207 142.56 75.9756 142.593 76.4297C142.627 76.8838 142.78 77.3211 143.036 77.6974C143.293 78.0738 143.644 78.376 144.055 78.5737C144.465 78.7713 144.921 78.8574 145.375 78.8233C145.83 78.7891 146.267 78.636 146.644 78.3792C147.02 78.1225 147.322 77.7712 147.52 77.3608C147.717 76.9503 147.803 76.4951 147.768 76.0411L157.116 60.3059L157.901 49.3731Z" fill="#FFB8B8"/>
<path d="M156.975 33.2383C157.875 33.3776 158.734 33.7135 159.489 34.222C160.245 34.7305 160.879 35.3991 161.347 36.1804C161.815 36.9616 162.104 37.8362 162.195 38.7419C162.286 39.6477 162.176 40.5623 161.873 41.4207L160.638 44.9164C160.638 44.9164 159.966 55.442 157.403 58.4131L149.539 57.7019C149.539 57.7019 150.977 52.3916 149.873 49.8223C149.197 48.2488 149.235 42.8141 149.901 38.3931C150.026 37.5903 150.308 36.8199 150.731 36.1261C151.154 35.4323 151.71 34.8288 152.368 34.3499C153.025 33.8711 153.77 33.5265 154.56 33.3357C155.351 33.145 156.171 33.1119 156.975 33.2383Z" fill="#E6E6E6"/>
<path d="M176.2 142.454L172.696 142.453L171.029 128.95L176.201 128.95L176.2 142.454Z" fill="#FFB6B6"/>
<path d="M176.323 146.106L165.547 146.105V145.969C165.548 144.858 165.989 143.792 166.776 143.006C167.563 142.221 168.629 141.779 169.742 141.779H169.742L171.71 140.287L175.383 141.779L176.324 141.779L176.323 146.106Z" fill="#2F2E41"/>
<path d="M160.965 125.718L157.728 127.059L151.01 115.224L155.788 113.245L160.965 125.718Z" fill="#FFB6B6"/>
<path d="M162.48 129.044L152.525 133.168L152.473 133.042C152.047 132.016 152.047 130.862 152.472 129.835C152.897 128.808 153.713 127.992 154.741 127.567L154.741 127.566L155.987 125.435L159.952 125.408L160.821 125.048L162.48 129.044Z" fill="#2F2E41"/>
<path d="M180.207 65.638L155.338 68.2338L152.011 79.4272L140.491 97.9233L153.211 121.271L157.69 117.254L153.391 98.4006L166.225 84.5583L168.659 83.5494L170.59 134.915L177.736 135.032L180.863 78.3535C182.365 73.3465 181.913 69.2123 180.207 65.638Z" fill="#2F2E41"/>
<path d="M171.089 30.2024L167.007 25.6107L160.557 26.3266L156.428 32.1001C154.229 32.605 152.309 33.9322 151.06 35.8088C149.812 37.6854 149.331 39.9686 149.716 42.1887C151.319 51.4072 156.765 60.348 154.966 64.8964C152.237 71.8008 152.07 74.6167 158.604 73.6488C165.138 72.6808 187.029 70.4492 182.785 66.2093C178.541 61.9694 177.608 54.8843 177.608 54.8843L177.438 38.6748C177.619 37.6972 177.595 36.6928 177.368 35.7249C177.141 34.757 176.716 33.8465 176.119 33.0507C175.523 32.2549 174.768 31.591 173.902 31.1009C173.037 30.6107 172.079 30.3048 171.089 30.2024L171.089 30.2024Z" fill="#E6E6E6"/>
<path d="M163.112 24.4356C167.066 24.4356 170.272 21.2332 170.272 17.2828C170.272 13.3324 167.066 10.1299 163.112 10.1299C159.158 10.1299 155.952 13.3324 155.952 17.2828C155.952 21.2332 159.158 24.4356 163.112 24.4356Z" fill="#FFB8B8"/>
<path d="M171.934 16.8581C171.614 18.3073 171.038 19.6877 170.231 20.934C170.017 21.3589 169.697 21.7218 169.302 21.9876C169.102 22.1158 168.864 22.1698 168.628 22.1404C168.392 22.111 168.175 21.9999 168.012 21.8265L167.838 21.6847C168.18 21.4744 168.485 21.21 168.741 20.9018C168.868 20.7471 168.956 20.5643 168.998 20.3688C169.041 20.1732 169.035 19.9704 168.983 19.7772C168.921 19.5868 168.788 19.4277 168.611 19.3333C168.434 19.239 168.228 19.2168 168.035 19.2714C167.616 19.4357 167.361 20.0415 166.922 19.948C166.567 19.8707 166.493 19.4035 166.493 19.0362C166.506 17.1158 165.577 14.3867 164.858 14.4705C164.131 14.5102 163.404 14.4129 162.713 14.1837C162.022 13.9542 161.292 13.8611 160.565 13.9098C160.514 13.9163 160.462 13.926 160.407 13.9356C160.291 13.5708 160.13 13.2213 159.93 12.8949C159.953 13.2889 159.933 13.6843 159.872 14.0742C159.293 14.3124 158.696 14.501 158.085 14.638C157.421 14.7315 155.96 16.7163 155.892 16.5133C155.775 16.1484 155.615 15.799 155.415 15.4725C155.437 15.8666 155.418 16.2619 155.357 16.6518C155.353 16.6679 155.353 16.6808 155.35 16.6969C155.028 16.2684 154.831 15.7464 154.941 16.146C153.86 13.7036 154.279 11.954 155.979 9.89514C156.31 9.45243 156.749 9.10099 157.253 8.87373C157.506 8.76289 157.782 8.71889 158.057 8.74598C158.332 8.77307 158.594 8.87033 158.82 9.0284C159.514 8.39343 160.364 7.95523 161.284 7.75921C162.204 7.56319 163.159 7.61648 164.052 7.91355C165.822 8.52898 167.187 8.88985 167.458 10.7458C168.922 10.5105 170.428 11.3419 171.234 12.5823C172.037 13.8261 172.202 15.4049 171.934 16.8581Z" fill="#2F2E41"/>
<path d="M166.128 76.269H163.752V57.9974H165.684C165.778 57.9974 165.868 58.0344 165.934 58.1004C166 58.1663 166.038 58.2559 166.038 58.3494L166.128 76.269Z" fill="#3F3D56"/>
<path d="M163.974 76.3657H138.455V63.3532H163.974V76.3657Z" fill="white"/>
<path d="M153.915 76.3174H138.503V63.4016H163.925V66.3172C163.922 68.9685 162.867 71.5103 160.99 73.3851C159.114 75.2598 156.569 76.3144 153.915 76.3174Z" fill="#6C63FF"/>
<path d="M165.741 58.5164C165.728 58.5406 165.718 58.5663 165.711 58.5928L164.831 61.9814L163.877 63.7873H138.552V63.3375L139.993 61.9814L141.675 58.7672C141.75 58.6253 141.847 58.4969 141.964 58.3872C142.23 58.1368 142.582 57.9974 142.948 57.9974H165.428C165.489 57.9974 165.549 58.0132 165.602 58.0432C165.655 58.0731 165.7 58.1163 165.731 58.1686C165.763 58.2208 165.78 58.2802 165.782 58.3412C165.784 58.4021 165.77 58.4625 165.741 58.5164Z" fill="#3F3D56"/>
<path d="M163.974 76.3657H138.455V63.3532H163.974V76.3657ZM138.649 76.1722H163.78V63.5468H138.649V76.1722Z" fill="#3F3D56"/>
<path d="M165.301 60.2497L164.832 61.9815H139.994L140.796 60.5401L165.301 60.2497Z" fill="#6C63FF"/>
<path d="M143.464 70.172H139.396V70.3969H143.464V70.172Z" fill="white"/>
<path d="M143.464 70.9591H139.396V71.184H143.464V70.9591Z" fill="white"/>
<path d="M143.464 71.7462H139.396V71.9711H143.464V71.7462Z" fill="white"/>
<path d="M140.972 67.6667C141.78 67.6667 142.435 67.0123 142.435 66.2049C142.435 65.3976 141.78 64.7431 140.972 64.7431C140.163 64.7431 139.508 65.3976 139.508 66.2049C139.508 67.0123 140.163 67.6667 140.972 67.6667Z" fill="white"/>
<path d="M176.056 47.7025L170.239 46.8701C168.271 50.1568 167.572 58.905 167.572 58.905L161.879 72.4237C161.502 72.6795 161.199 73.0301 161 73.4401C160.802 73.8501 160.715 74.305 160.749 74.7591C160.783 75.2132 160.935 75.6505 161.192 76.0269C161.448 76.4032 161.8 76.7055 162.21 76.9031C162.621 77.1007 163.076 77.1868 163.531 77.1527C163.985 77.1186 164.423 76.9654 164.799 76.7087C165.176 76.4519 165.478 76.1006 165.675 75.6902C165.873 75.2797 165.958 74.8246 165.923 74.3705L175.271 58.6353L176.056 47.7025Z" fill="#FFB8B8"/>
<path d="M172.903 31.5677C173.803 31.707 174.662 32.0429 175.418 32.5514C176.173 33.0599 176.808 33.7286 177.275 34.5098C177.743 35.291 178.033 36.1656 178.123 37.0713C178.214 37.9771 178.104 38.8917 177.801 39.7501L176.567 43.2458C176.567 43.2458 178.122 53.7714 175.559 56.7425L167.695 56.0313C167.695 56.0313 169.133 50.721 168.029 48.1517C167.353 46.5782 167.39 41.1435 168.056 36.7225C168.565 33.3467 169.526 31.0453 172.903 31.5677Z" fill="#E6E6E6"/>
<path d="M123.505 14.1522C120.663 15.5684 118.5 18.0545 117.492 21.0637C116.485 24.0729 116.715 27.3586 118.133 30.1982C121.085 36.1111 131.751 46.1957 140.262 47.7194C136.601 36.6146 141.691 25.327 139.566 19.5191C137.296 13.3131 129.424 11.2033 123.505 14.1522Z" fill="#6C63FF"/>
<path d="M127.495 28.2152C129.652 28.2152 131.4 26.4683 131.4 24.3134C131.4 22.1584 129.652 20.4115 127.495 20.4115C125.338 20.4115 123.589 22.1584 123.589 24.3134C123.589 26.4683 125.338 28.2152 127.495 28.2152Z" fill="white"/>
<path d="M140.187 53.9821C141.6 53.9821 142.745 52.8379 142.745 51.4265C142.745 50.015 141.6 48.8708 140.187 48.8708C138.774 48.8708 137.629 50.015 137.629 51.4265C137.629 52.8379 138.774 53.9821 140.187 53.9821Z" fill="#6C63FF"/>
<path opacity="0.2" d="M128.685 20.2118C129.198 20.194 129.709 20.2773 130.19 20.457C130.67 20.6368 131.111 20.9094 131.486 21.2592C131.861 21.6091 132.163 22.0294 132.376 22.4961C132.588 22.9627 132.706 23.4667 132.724 23.979C132.741 24.4914 132.657 25.0022 132.477 25.4822C132.297 25.9621 132.023 26.4019 131.673 26.7763C131.322 27.1508 130.901 27.4525 130.434 27.6643C129.967 27.8762 129.462 27.9939 128.949 28.0108C129.819 27.6879 130.544 27.0664 130.997 26.2577C131.449 25.449 131.599 24.5058 131.419 23.5969C131.239 22.6881 130.741 21.8729 130.014 21.2973C129.288 20.7217 128.38 20.4232 127.453 20.4553C127.848 20.3083 128.264 20.226 128.685 20.2118Z" fill="#231F20"/>
<path opacity="0.2" d="M139.586 19.5213C141.711 25.3293 136.621 36.6168 140.282 47.7216C139.478 47.5739 138.687 47.3669 137.914 47.1026C134.932 36.3676 139.613 25.6409 137.56 20.0294C135.723 15.007 130.216 12.6679 125.046 13.5213C130.721 11.5877 137.505 13.8341 139.586 19.5213Z" fill="#231F20"/>
<path d="M19.6951 73.4069C16.753 73.3363 13.9032 74.4362 11.7728 76.4647C9.64246 78.4932 8.40592 81.2841 8.33528 84.2234C8.18816 90.3443 12.5504 103.222 18.86 108.154C20.6783 97.4738 29.7433 90.4325 30.5222 84.7557C31.3545 78.6898 25.8219 73.5538 19.6951 73.4069Z" fill="#D1D3D4"/>
<path d="M18.5553 87.0718C20.554 87.0718 22.1743 85.4531 22.1743 83.4563C22.1743 81.4596 20.554 79.8409 18.5553 79.8409C16.5566 79.8409 14.9363 81.4596 14.9363 83.4563C14.9363 85.4531 16.5566 87.0718 18.5553 87.0718Z" fill="white"/>
<path d="M17.1906 113.526C18.4997 113.526 19.5609 112.465 19.5609 111.158C19.5609 109.85 18.4997 108.79 17.1906 108.79C15.8814 108.79 14.8202 109.85 14.8202 111.158C14.8202 112.465 15.8814 113.526 17.1906 113.526Z" fill="#D1D3D4"/>
<path opacity="0.2" d="M21.3093 80.6123C22.1724 81.0317 22.8333 81.7765 23.1468 82.6828C23.4602 83.5891 23.4004 84.5827 22.9805 85.4449C22.7726 85.8719 22.4826 86.2537 22.127 86.5687C21.7714 86.8837 21.3571 87.1256 20.9079 87.2806C20.0008 87.5937 19.0062 87.534 18.1431 87.1145C18.9951 87.2263 19.8591 87.0315 20.5805 86.565C21.3019 86.0985 21.8335 85.3907 22.0803 84.5684C22.327 83.7461 22.2728 82.8629 21.9273 82.0769C21.5818 81.2909 20.9676 80.6533 20.1945 80.2784C20.5817 80.3289 20.9582 80.4416 21.3093 80.6123Z" fill="#231F20"/>
<path opacity="0.2" d="M30.5374 84.7661C29.7585 90.4429 20.6935 97.4842 18.8751 108.164C18.2813 107.695 17.723 107.183 17.2048 106.632C19.4181 96.5489 27.905 89.7899 28.6576 84.3051C29.3311 79.3961 25.8358 75.0966 21.2308 73.5571C26.7174 74.4302 31.3001 79.2073 30.5374 84.7661Z" fill="#231F20"/>
<path d="M61.7943 26.2989C60.9674 26.3529 60.1943 26.7272 59.6394 27.3421C59.0845 27.9569 58.7917 28.7638 58.8232 29.5911C58.8322 29.7591 58.8552 29.9262 58.8919 30.0904L49.5018 36.0003L54.6931 38.2941L62.8142 32.3303C63.4842 32.1257 64.0677 31.7054 64.4734 31.1348C64.8792 30.5642 65.0844 29.8754 65.0572 29.176C65.0378 28.7782 64.9403 28.388 64.77 28.0279C64.5997 27.6677 64.3602 27.3446 64.0649 27.077C63.7696 26.8093 63.4245 26.6024 63.0492 26.468C62.6739 26.3336 62.2758 26.2744 61.8776 26.2937C61.8498 26.2951 61.8221 26.2968 61.7943 26.2989Z" fill="#FFB6B6"/>
<path d="M52.7395 33.3142L55.0667 38.1112L45.8651 44.0267C45.2104 44.4513 44.4579 44.7015 43.6791 44.7536C42.9003 44.8057 42.1211 44.658 41.4155 44.3245C40.5577 43.9143 39.8566 43.2367 39.4179 42.3938C38.9792 41.5508 38.8266 40.5883 38.9831 39.6512L41.9688 22.6222C42.1693 21.4305 42.8192 20.3609 43.7849 19.6333C44.7506 18.9057 45.9587 18.5754 47.1607 18.7104C47.7461 18.7744 48.3132 18.9529 48.8296 19.2358C49.346 19.5187 49.8016 19.9005 50.1703 20.3593C50.539 20.8181 50.8137 21.345 50.9786 21.9098C51.1435 22.4746 51.1954 23.0664 51.1314 23.6513C51.1263 23.6975 51.1205 23.7436 51.114 23.7897C51.0915 23.9533 51.0601 24.1156 51.02 24.2758L47.7605 36.3865L52.7395 33.3142Z" fill="#6C63FF"/>
<path d="M53.3934 40.7507H40.2341V53.8972H53.3934V40.7507Z" fill="#FFB8B8"/>
<path d="M84.6006 79.468L89.6262 77.779L92.4249 91.4456L89.0194 92.5899L84.6006 79.468Z" fill="#FFB6B6"/>
<path d="M76.0828 78.4179L81.0679 76.6124L84.1841 90.21L80.8063 91.4332L76.0828 78.4179Z" fill="#FFB6B6"/>
<path d="M40.7061 57.3317C38.0686 74.8981 73.1919 64.5126 73.1919 64.5126L84.2045 79.6897L90.6518 78.5186C90.6518 78.5186 87.7507 69.4074 82.5698 57.1932C80.269 51.769 54.1432 53.0944 54.1432 53.0944L53.6007 48.8413L38.6547 48.5485L40.7061 57.3317Z" fill="#2F2E41"/>
<path d="M66.0774 65.6902L74.1993 60.6368C80.1451 72.4981 81.8977 77.635 81.8977 77.635L76.2766 79.2142L66.0774 65.6902Z" fill="#2F2E41"/>
<path d="M48.2237 19.3876L45.575 15.9863L41.7967 15.8226L41.4196 19.0216L39.5475 19.8841C37.6782 26.979 37.3895 34.3972 38.7017 41.6157C38.9527 41.8517 39.136 42.1503 39.2328 42.4807C39.3297 42.8111 39.3365 43.1613 39.2527 43.4953L39.1313 43.9787L39.1426 43.9964C39.5409 44.6244 39.6761 45.3837 39.5188 46.1103L38.6248 47.6975C38.304 48.2682 38.1114 48.9019 38.0605 49.5546C38.0097 50.2072 38.1017 50.863 38.3303 51.4765C38.5588 52.09 38.9184 52.6464 39.3839 53.107C39.8495 53.5676 40.4099 53.9214 41.0262 54.1437C46.5219 56.1338 51.6736 56.8751 55.4849 51.2906L56.6833 31.8299L48.2237 19.3876Z" fill="#6C63FF"/>
<path d="M45.449 16.8895C49.3072 16.8895 52.4348 13.7649 52.4348 9.91046C52.4348 6.05603 49.3072 2.93139 45.449 2.93139C41.5908 2.93139 38.4631 6.05603 38.4631 9.91046C38.4631 13.7649 41.5908 16.8895 45.449 16.8895Z" fill="#FFB8B8"/>
<path d="M41.942 1.4973C38.9841 1.55407 36.6381 4.29508 36.702 7.61952C34.5131 9.9013 33.9829 21.1245 35.8118 24.1102C39.1576 24.4982 41.1926 16.2287 44.1268 17.4242L44.5134 15.6194L45.3895 17.9696C46.1352 18.3131 46.8752 18.69 47.6097 19.1005C48.1374 16.6821 48.0066 14.3313 46.588 12.2837C45.3278 10.4646 48.3946 8.30499 50.5879 8.61022L50.5557 6.93949L51.1066 8.60026C51.9615 9.22788 52.9073 9.00066 53.8771 8.54709C55.4496 0.381801 43.2742 -1.85114 41.942 1.4973Z" fill="#2F2E41"/>
<path d="M87.4715 94.9015L89.7106 94.6093L89.8341 92.4452L91.1338 94.4236L97.0725 93.6486C97.3571 93.6114 97.6225 93.4844 97.8297 93.2859C98.037 93.0875 98.1753 92.828 98.2245 92.5455C98.2737 92.2629 98.2313 91.972 98.1033 91.7153C97.9753 91.4586 97.7685 91.2495 97.5131 91.1184L92.3429 88.4652L92.0637 86.3302L87.1144 87.2785L87.4715 94.9015Z" fill="#2F2E41"/>
<path d="M81.5575 94.921L83.5888 93.9356L83.0202 91.8438L84.88 93.3092L90.2675 90.6957C90.5258 90.5705 90.7372 90.366 90.8709 90.1122C91.0046 89.8584 91.0536 89.5685 91.0108 89.285C90.9679 89.0014 90.8354 88.7389 90.6327 88.5359C90.4299 88.3328 90.1675 88.1999 89.8837 88.1564L84.1386 87.275L83.1972 85.338L78.803 87.8031L81.5575 94.921Z" fill="#2F2E41"/>
<path d="M50.8931 48.3813H53.3839V29.2295H51.3582C51.26 29.2295 51.1659 29.2683 51.0964 29.3374C51.0268 29.4066 50.9875 29.5004 50.987 29.5984L50.8931 48.3813Z" fill="#CCCCCC"/>
<path d="M53.1511 34.8433H79.8996V48.4827H53.1511V34.8433Z" fill="white"/>
<path d="M53.2018 37.95V34.894H79.8488V48.432H63.694C60.9123 48.4288 58.2454 47.3235 56.2784 45.3584C54.3114 43.3934 53.205 40.7291 53.2018 37.95Z" fill="#F2F2F2"/>
<path d="M51.2987 29.7735C51.3122 29.7989 51.3226 29.8258 51.3298 29.8536L52.2522 33.4054L53.2526 35.2983H79.798V34.8269L78.2866 33.4054L76.5236 30.0364C76.4458 29.8877 76.3436 29.753 76.2213 29.638C75.9421 29.3756 75.5732 29.2295 75.1899 29.2295H51.6269C51.5629 29.2295 51.5 29.246 51.4443 29.2775C51.3886 29.3089 51.342 29.3542 51.309 29.4089C51.276 29.4637 51.2577 29.526 51.2559 29.5899C51.2541 29.6537 51.2688 29.717 51.2987 29.7735Z" fill="#F2F2F2"/>
<path d="M53.1511 34.8433H79.8996V48.4827H53.1511V34.8433ZM79.6965 48.2798H53.3542V35.0462H79.6965L79.6965 48.2798Z" fill="#E6E6E6"/>
<path d="M51.7594 31.5903L52.2523 33.4054H78.2867L77.4454 31.8948L51.7594 31.5903Z" fill="#CCCCCC"/>
<path d="M78.9131 41.9905H74.6492V42.2263H78.9131V41.9905Z" fill="white"/>
<path d="M78.9131 42.8156H74.6492V43.0513H78.9131V42.8156Z" fill="white"/>
<path d="M78.9131 43.6407H74.6492V43.8764H78.9131V43.6407Z" fill="white"/>
<path d="M77.2614 39.3646C78.1085 39.3646 78.7951 38.6786 78.7951 37.8324C78.7951 36.9862 78.1085 36.3002 77.2614 36.3002C76.4143 36.3002 75.7277 36.9862 75.7277 37.8324C75.7277 38.6786 76.4143 39.3646 77.2614 39.3646Z" fill="white"/>
<path d="M64.8889 14.6805C66.6917 14.6372 68.4379 15.3112 69.7433 16.5542C71.0486 17.7971 71.8063 19.5072 71.8496 21.3083C71.9397 25.0588 69.2668 32.9493 65.4006 35.9715C64.2864 29.4274 58.7319 25.1128 58.2547 21.6344C57.7447 17.9176 61.1348 14.7705 64.8889 14.6805Z" fill="#D1D3D4"/>
<path d="M65.5873 23.0536C66.812 23.0536 67.8048 22.0618 67.8048 20.8382C67.8048 19.6147 66.812 18.6229 65.5873 18.6229C64.3626 18.6229 63.3698 19.6147 63.3698 20.8382C63.3698 22.0618 64.3626 23.0536 65.5873 23.0536Z" fill="white"/>
<path d="M66.4236 39.2631C67.2258 39.2631 67.876 38.6134 67.876 37.8121C67.876 37.0107 67.2258 36.361 66.4236 36.361C65.6215 36.361 64.9712 37.0107 64.9712 37.8121C64.9712 38.6134 65.6215 39.2631 66.4236 39.2631Z" fill="#D1D3D4"/>
<path opacity="0.2" d="M63.8998 19.0955C63.6379 19.2228 63.4037 19.4003 63.2105 19.618C63.0174 19.8357 62.869 20.0893 62.7739 20.3643C62.6788 20.6392 62.6389 20.9302 62.6563 21.2206C62.6738 21.511 62.7484 21.7951 62.8758 22.0567C63.0031 22.3184 63.1809 22.5523 63.3988 22.7453C63.6167 22.9383 63.8705 23.0865 64.1457 23.1815C64.421 23.2765 64.7122 23.3165 65.0029 23.299C65.2936 23.2815 65.578 23.207 65.8398 23.0798C65.3178 23.1483 64.7884 23.0289 64.3464 22.7431C63.9044 22.4572 63.5786 22.0235 63.4274 21.5197C63.2762 21.0158 63.3094 20.4746 63.5211 19.993C63.7328 19.5113 64.1092 19.1207 64.5828 18.891C64.3456 18.9219 64.1149 18.991 63.8998 19.0955Z" fill="#231F20"/>
<path opacity="0.2" d="M58.2454 21.6408C58.7226 25.1192 64.2772 29.4337 65.3914 35.9779C65.7552 35.6906 66.0973 35.3769 66.4149 35.0393C65.0587 28.8606 59.8583 24.7191 59.3972 21.3583C58.9845 18.3503 61.1262 15.7158 63.9479 14.7725C60.5861 15.3075 57.778 18.2347 58.2454 21.6408Z" fill="#231F20"/>
<path d="M60.9386 33.1025C60.1122 33.0413 59.2946 33.3048 58.6596 33.8367C58.0247 34.3686 57.6225 35.1271 57.5388 35.9507C57.5244 36.1184 57.524 36.287 57.5374 36.4548L47.4171 41.0052L52.2394 43.9967L61.1105 39.2169C61.8025 39.1073 62.4387 38.7719 62.9198 38.2631C63.4009 37.7543 63.6999 37.1007 63.7701 36.4042C63.8431 35.6031 63.5945 34.8059 63.0791 34.1879C62.5637 33.5699 61.8237 33.1818 61.0218 33.1089C60.9941 33.1064 60.9664 33.1042 60.9386 33.1025Z" fill="#FFB6B6"/>
<path d="M50.9966 38.7941L52.6347 43.8674L42.7003 48.4495C41.9929 48.7792 41.2129 48.9226 40.4344 48.8662C39.6559 48.8098 38.9048 48.5555 38.2524 48.1274C37.4599 47.6022 36.8597 46.8339 36.5424 45.9383C36.225 45.0427 36.2076 44.0683 36.4929 43.1619L41.8159 26.7119C42.18 25.5595 42.9723 24.5904 44.0297 24.0038C45.0872 23.4171 46.3294 23.2576 47.501 23.558C48.0719 23.7025 48.6087 23.958 49.0808 24.3098C49.5529 24.6616 49.951 25.1028 50.2524 25.6083C50.5538 26.1138 50.7526 26.6736 50.8374 27.2559C50.9222 27.8381 50.8914 28.4314 50.7467 29.0017C50.7353 29.0468 50.7232 29.0917 50.7103 29.1363C50.6653 29.2953 50.6116 29.4516 50.5497 29.6048L45.639 41.1462L50.9966 38.7941Z" fill="#6C63FF"/>
</g>
<defs>
<clipPath id="clip0_5_53">
<rect width="204" height="146.912" fill="white"/>
</clipPath>
</defs>
</svg>
