<svg width="15" height="25" viewBox="0 0 15 25" fill="none" xmlns="http://www.w3.org/2000/svg">
<path d="M5.46886 15.4759V23.1269L6.54407 24.7393C6.77601 25.0869 7.28725 25.0869 7.51919 24.7393L8.59392 23.1269V15.4759C8.08658 15.5696 7.56558 15.6253 7.03139 15.6253C6.4972 15.6253 5.97619 15.5696 5.46886 15.4759ZM7.03139 0C3.14801 0 0 3.14801 0 7.03139C0 10.9148 3.14801 14.0628 7.03139 14.0628C10.9148 14.0628 14.0628 10.9148 14.0628 7.03139C14.0628 3.14801 10.9148 0 7.03139 0ZM7.03139 3.71101C5.2003 3.71101 3.71101 5.2003 3.71101 7.03139C3.71101 7.35464 3.44831 7.61734 3.12506 7.61734C2.80181 7.61734 2.53911 7.35464 2.53911 7.03139C2.53911 4.55429 4.55478 2.53911 7.03139 2.53911C7.35464 2.53911 7.61734 2.80181 7.61734 3.12506C7.61734 3.44831 7.35464 3.71101 7.03139 3.71101Z" fill="black"/>
</svg>
