<svg width="9" height="9" viewBox="0 0 9 9" fill="none" xmlns="http://www.w3.org/2000/svg">
<g clip-path="url(#clip0_9_648)">
<path d="M7.875 6.00002V3.00002C7.87487 2.8685 7.84015 2.73933 7.77433 2.62546C7.70851 2.51159 7.6139 2.41704 7.5 2.35127L4.875 0.851274C4.76099 0.785448 4.63165 0.750793 4.5 0.750793C4.36835 0.750793 4.23901 0.785448 4.125 0.851274L1.5 2.35127C1.3861 2.41704 1.29149 2.51159 1.22567 2.62546C1.15985 2.73933 1.12513 2.8685 1.125 3.00002V6.00002C1.12513 6.13155 1.15985 6.26072 1.22567 6.37459C1.29149 6.48846 1.3861 6.58301 1.5 6.64877L4.125 8.14877C4.23901 8.2146 4.36835 8.24926 4.5 8.24926C4.63165 8.24926 4.76099 8.2146 4.875 8.14877L7.5 6.64877C7.6139 6.58301 7.70851 6.48846 7.77433 6.37459C7.84015 6.26072 7.87487 6.13155 7.875 6.00002Z" stroke="black" stroke-width="0.75" stroke-linecap="round" stroke-linejoin="round"/>
<path d="M1.22626 2.60999L4.50001 4.50374L7.77376 2.60999" stroke="black" stroke-width="0.75" stroke-linecap="round" stroke-linejoin="round"/>
<path d="M4.5 8.28V4.5" stroke="black" stroke-width="0.75" stroke-linecap="round" stroke-linejoin="round"/>
</g>
<defs>
<clipPath id="clip0_9_648">
<rect width="9" height="9" fill="white"/>
</clipPath>
</defs>
</svg>
